<svg id="Layer_1" data-name="Layer 1" xmlns="http://www.w3.org/2000/svg" viewBox="0 0 2300 766"><defs><style>.cls-1{fill:#838585;}.cls-2{fill:#818383;}.cls-3{fill:#425e9d;}.cls-4{fill:#3f5d9c;}.cls-5{fill:#848686;}.cls-6{fill:#44619e;}.cls-7{fill:#4d69a2;}.cls-8{fill:#808282;}.cls-9{fill:#1f3150;}.cls-10{fill:#3e5d9c;}.cls-11{fill:#42609e;}.cls-12{fill:#fff;}</style></defs><path class="cls-1" d="M986.24,429.07c0-30.68.12-61.36-.07-92-.07-9.64-.45-17.32,13.48-11.52,19.36,8,39.2,4.27,59,.14,32-6.7,63.93-7.66,94,8,8.5,4.45,14.65,1.17,22-2,29.22-12.62,60.16-13.14,90.52-7.81,39.72,7,61.85,34.13,62.68,75.13,1,47.78-.08,95.59.44,143.38.14,12.72-4.47,16.08-16.57,14.46-33.44-4.5-42.31-14.23-42.31-48.41s.31-68.49-.1-102.72c-.37-29.32-12.59-41.51-39.77-41.08-30.71.49-42.92,12.48-43,42.48-.07,44.23-.63,88.48.29,132.68.34,16.6-5.93,19.26-20.47,16.31-32.06-6.53-38.52-13.86-38.52-47.22q0-49.23,0-98.45c-.06-35.29-11.21-46.32-46-45.64-35.67.7-36.88,1.91-36.88,37,0,45.65-.68,91.32.34,137,.4,17.52-6.13,20.59-21.54,17.39-31.64-6.57-37.47-13.12-37.48-45.76Q986.23,469.74,986.24,429.07Z"/><path class="cls-2" d="M637.66,464.45c7,32.27,30.91,40.34,56.07,45.11,22.49,4.27,45.57,4.29,68.34,1.39,25.26-3.23,41.8-18.8,43.89-39.76,2.2-22.17-9.32-38-36.71-45.17-27.55-7.19-56-10.84-83.68-17.61-48.21-11.81-70.31-36.94-70.93-78.31-.71-47.5,23-78.65,71.25-90.73,43.79-11,88-9.69,131.31,2.66,42.13,12,51.93,45,25.81,87.89-8-34.24-33.76-42.65-62.77-47.16C756,279,731.87,277.48,708,284.22c-16.85,4.76-29.7,14-31,33.58-1.35,20.53,11.69,30.25,28.62,34.45,22.77,5.66,46.06,9.37,69.23,13.31,63.22,10.75,92,40.43,91.94,95.51,0,45.42-23.91,77.62-70,90.35-44.31,12.23-89.29,11.19-133.11-2.5C619.68,535.16,610.51,505.78,637.66,464.45Z"/><path class="cls-3" d="M1418.75,237.51c20.66,1,41.4,1.14,62,3.19,71.13,7.11,105.27,50.67,96.12,121.61-7.53,58.41-43.31,86.64-114.89,91.15-14.69.93-33.91-6.77-42.9,4-9.23,11.11-2.25,30.15-3,45.7-.4,8.54,1.66,17.59-.51,25.56-2.71,10,11.11,28-11.8,29-27.1,1.09-46.51-12.41-47.87-31.93-.35-5-.07-10-.07-15,0-84.19.47-168.38-.4-252.56-.18-16.38,4.63-21.47,20.49-20.06,14.17,1.26,28.56.27,42.84.27Zm-2.83,107.85v23.49c0,41.52,0,41.43,42.51,39.29,19.9-1,38.62-4.73,49.9-23.3,28.18-46.36.76-98.46-53-101.23-39.39-2-39.39-2-39.39,36.13Z"/><path class="cls-4" d="M2268.79,557.93c-24-7.19-45.16-5.52-66.49-2.09-26.27,4.22-52.68,5.57-78.57-2.16-30.07-9-46.79-29.82-48-58.43-1.37-31.89,11.21-53.12,41.94-64.74,21.25-8,44-12,65.62-19.19,11.43-3.79,28-5.71,26.63-22.55-1.5-18.73-17.33-22.38-33.11-23.59-43-3.29-67.67,11-78.06,44.91-28.09-30.46-21.49-65.15,16.45-79.53,35.87-13.58,72.89-13.51,109-.74,29.71,10.5,44.41,32.59,44.52,63.63C2268.94,447.62,2268.79,501.79,2268.79,557.93ZM2213,444c-20.47,12.24-41.15,12.21-59.33,19.95-19.41,8.26-26.82,29.39-13.86,42.74,17.95,18.49,40.58,12.45,62.1,7.87,18.48-3.93,9.74-19.2,10.79-29.72C2214,472.29,2213,459.47,2213,444Z"/><path class="cls-4" d="M1608.54,411.64c-28.8-38.54-19.43-70.86,23.58-83.87a165.49,165.49,0,0,1,97-.06c29.18,8.85,48.68,29.15,49.6,60.19,1.66,56.15.47,112.38.47,169.83-24.82-7-48.44-4.72-72.47-1s-48.36,4.42-72.12-2.77c-30.78-9.3-47.26-28.95-48.55-57.63-1.51-34,10.45-54,42.46-66.21,18.53-7.07,38.16-11.24,57.27-16.84,6.82-2,13.85-3.69,20.2-6.75,6.84-3.29,14.81-6.46,14.44-16.42-.36-9.55-5.59-15.81-13.66-20.17C1672.45,351.39,1620.9,372.24,1608.54,411.64ZM1723.43,446c-11.19,3.51-20.55,6.56-30,9.36s-19.35,4.84-28.66,8.26c-15.92,5.84-25.27,16.55-20.08,34.47,4.87,16.77,26.33,23.83,53.34,20,18-2.53,28.71-8.65,25.75-29.62C1721.91,475.2,1723.43,461.47,1723.43,446Z"/><path class="cls-3" d="M2043.69,402.9c-16.86-32.07-67-48.63-99.37-32.63-8.89,4.4-15,11.22-14.17,21.85.81,10.35,8.47,14.56,17.36,16.05,19.68,3.29,39.56,5.43,59.21,8.88,40.08,7,60.68,26.79,64.29,60.71,3.88,36.44-13.74,64.52-49.49,74.83-36.34,10.47-73.4,10.36-109.51-1.24-42.06-13.51-48.65-44.82-17.35-77.6,18.9,35.59,58.13,51.15,96.4,38.69,13.53-4.41,23.58-12.29,23.18-27-.42-15.17-13.58-19.13-25.62-21.27-20.34-3.64-41.06-5.18-61.36-8.94-36.71-6.78-53.6-24.76-55.53-57.32-2-34.13,16.41-61.48,50-70.76,32.16-8.9,65.13-8.8,97.39-.62C2062.71,337.63,2071.84,367.31,2043.69,402.9Z"/><path class="cls-5" d="M952.05,450.78c0,30.65-.53,61.32.24,92,.33,13.09-4.94,15.77-16.6,14.32-33.12-4.1-42.36-14.35-42.37-48.46,0-55.6.56-111.21-.34-166.79-.28-17.09,5.53-21,21.29-17.74,31.7,6.52,37.77,13.21,37.78,45.47Z"/><path class="cls-6" d="M1860.71,449.74c0,30.66-.57,61.34.26,92,.39,14.11-5,17.06-17.83,15-33.54-5.31-41.33-13.71-41.33-47,0-56.33.47-112.67-.3-169-.22-15.9,4.84-19.71,20-16.7,33,6.55,39.21,13.17,39.21,46.57Q1860.73,410.17,1860.71,449.74Z"/><path class="cls-7" d="M1837.11,292c-31.87-.08-32.74-2.85-34.9-30.05-2-25.45,14.11-20.42,28.18-20.43,26.42,0,27.59,3.22,29.95,29C1862.54,294.72,1848.82,293.27,1837.11,292Z"/><path class="cls-5" d="M928.82,291.88c-32.27,0-31.52-1.11-33.83-27.59-2-22.41,9-23.61,26-23,27.5,1,28.61,3.11,30.93,28.37C954.09,292.75,942.52,294.35,928.82,291.88Z"/><path class="cls-8" d="M362.5,602.51a585.38,585.38,0,0,1-32.35-49.68c-3.47-6-5.5-3.07-8.54.28-10.17,11.19-22.54,12-34.24,2.37-6.86-5.65-13.34-11.77-20.35-17.22-5-3.87-4.32-6.48-.12-10.65,10.57-10.49,20.61-21.52,30.87-32.33,1.55-1.65,4-3.6,1.7-5.73-2.5-2.33-3.81,1-5.1,2.38-10,10.3-20,20.54-29.55,31.22-4.87,5.44-8.18,6.65-14.27,1-13.58-12.74-27.79-24.86-42.3-36.52-5.9-4.74-5.48-7.57-.62-12.5,17.11-17.35,33.89-35,50.76-52.61a80.59,80.59,0,0,0,6.23-7.09l-.27-3.08c-.76-1.21-2-.68-2.91.11-1.46,1.36-2.83,2.85-4.21,4.29Q230.16,445,203.12,473.26c-3.1,3.26-5.52,5.23-9.81,1.35-11.28-10.19-23.11-19.77-34.29-30-10.06-9.25-10.19-20.34-.93-30.21C167.7,404.13,178,394.49,187,383.74c8.17-9.78,17.41-14.83,30.37-13.79,6.48.52,13.14-.79,19.69-1.53,2.24-.25,6.26,1.25,6.18-2.39s-4-2.39-6.33-2.24c-9.87.6-19.68,2.37-30.82,1.44,6.23-8.77,13.48-15.18,20.2-22,3.31-3.39,4.34-6.16,2.44-11.16-12.11-31.89-22.42-64.37-26.65-98.34-2.23-17.9-3.42-36.08,4.64-53.2,5.47-11.62,15.17-16,27.47-13.5,7.2,1.45,13.14,5.64,19.87,8l1-1c-8.41-10.16-19.13-17.26-31.23-22.08-24.24-9.64-43.1-.82-51.76,23.78-6.64,18.87-6.2,38.35-4.21,57.78,3.08,30.3,10.89,59.61,20.07,88.56,1.43,4.5.8,7.29-2.4,10.59-16.16,16.67-32.07,33.58-48.12,50.35Q88.07,434.56,38.67,486.08c-10.48,11-10,21.15,1.39,31q73.2,63.26,146.38,126.57l1.22.9,34.06,29.29s15.23,12.87,29.34,0c7.17-6.54,19.78-19.39,30.46-30.47l.87-.8c16.27-17.34,32.89-34.38,49.05-51.82,3.78-4.08,6.18-4.38,10.45-.79,6.55,5.53,12.9,11.49,21.47,16.15C362.89,604.05,362.92,603.11,362.5,602.51Z"/><path class="cls-9" d="M330.45,97c2.89,7.74,9.32,13.31,12.26,21.21,6.78,18.22,2.12,34.76-6.46,50.71-3,5.63-5.56,11.92-11.11,15.92q-33-20.83-66.05-41.69c-2.3-1.46-4.91-2.48-4.73-6.33,1.28-27.75,29.13-57.89,60.37-48.66,3.83,1.13,7.59,2.5,10.67,5.23l2,1.51-.11-.09c.33,1.76,1.46,2.36,3.13,2.2Z"/><path class="cls-10" d="M330.46,97c-1.67.16-2.8-.44-3.13-2.2C328.79,95,330,95.42,330.46,97Z"/><path class="cls-10" d="M327.44,94.91l-2-1.51Z"/><polygon class="cls-8" points="255.07 174.01 255.98 175.62 254.06 175.02 255.07 174.01"/><path class="cls-10" d="M521.82,260.72c-39.81-46.4-85.53-86.2-133.92-123.18-18.62-14.22-37.06-28.79-57.45-40.53,2.89,7.74,9.32,13.31,12.26,21.21,6.78,18.22,2.12,34.76-6.46,50.7-3,5.64-5.56,11.93-11.11,15.93a41.92,41.92,0,0,1-3.11,5.07c-23.39,28.71-50.74,53.76-75.76,81-3.64,4-5.05,1.63-6.62-1.5-5.42-10.89-10.83-21.77-16.34-32.89-2.3,1.92-1.5,3.75-1.23,5.18,1.92,10.11,3.44,20.35,6.18,30.24a1124.94,1124.94,0,0,0,90.19,226.84c20.37,38.43,40.59,77.09,68,111.28,10.22,12.76,21,25.2,36,32.77,20.81,10.52,39,3,46.3-19.06,6.31-19.13,4.29-38.41.27-57.64-.37-1.77-1.06-3.38-4.1-2.29,0,2.87.15,6,0,9.08-.61,10.63-2,21.13-7,30.73-4.71,9-10.68,10.89-19.85,6.55a56.46,56.46,0,0,1-14.58-10.53c-17.21-16.33-30.05-36-42.75-55.82-2.39-3.72-.62-5.42,1.71-7.85,35-36.32,69.8-72.85,105-109,19.69-20.25,38.34-41.13,49.06-67.74C550.77,323.57,547.74,290.93,521.82,260.72ZM306.41,327.17c.23-42.67,35.9-77.25,79.33-76.9,43.17.36,77.48,36,77.14,80.08-.31,42.4-35.8,77.07-78.59,76.81C340.13,406.89,306.17,372,306.41,327.17Z"/><path class="cls-11" d="M370.69,343c13.06-.91,24.23,3.59,36.06,7.31-4.05,7.6-9.46,10.75-17.71,8.19-8.46-2.63-16.92-5.55-26-3.42-4.27,1-6.48,2.51-2.14,6.46,4.66,4.23,9.34,8.48,13.58,13.1,1.67,1.81,6.89,3.39,2.65,7.14-3.31,2.94-7.28,6.48-12.09,2.48-3.5-2.92-6.63-6.31-9.86-9.54-10.75-10.69-21.35-21.56-32.29-32.05-3.56-3.41-3.55-5.56.05-8.8,5.29-4.78,9.94-10.29,15.25-15.05,10.44-9.33,17.89-10.48,26-4.57C374.11,321.46,376,329.17,370.69,343Zm-9.18-8.7c0-5.2-5.24-10.63-10.3-10.65-3.9,0-15.44,9.35-15.16,12.31.15,1.58,12.56,13.53,13.92,13.42C352.77,349.11,361.51,337.67,361.51,334.25Z"/><path class="cls-6" d="M409.38,298c-9.07-1-15.26,3.37-20,10.39-1.56,2.32-2.11,4.66,0,7,2.38,2.73,4.69,1.24,6.81-.24,4.22-2.94,8.17-6.3,12.49-9.06,6.6-4.21,13-3.72,18.75,1.85s6.29,12,2.67,18.78a40.62,40.62,0,0,1-18.92,18c-4,1.84-7.8,2-11-1.56-1.53-1.71-3-3.82-2.26-6.18,1-3,3.39-.68,5.11-.8,7.72-.51,12.45-5.32,16.16-11.29a5.63,5.63,0,0,0-1.11-7.75c-2.56-2.18-5-.81-7.06.58-4,2.71-7.66,6-11.72,8.66-6,3.94-12.12,5-17.94-.56s-6.83-11.72-3.3-18.68a38.93,38.93,0,0,1,16-16.32C401.83,286.5,405.89,288.42,409.38,298Z"/><path class="cls-6" d="M449.78,306.21c-1.78,3.44-3.94,7.06-7.77,7.11s-7.24-3.64-7.5-6.94c-.24-2.92,3.34-6,6.77-6.47C445.58,299.35,447.23,303.48,449.78,306.21Z"/><path class="cls-12" d="M255,286.94s27.45-23.47,54.92-52.76c13.73-14.65,27.48-30.76,37.82-46.18s17.35-30.12,17.38-42.3A24,24,0,0,0,362.84,135l-1.33.65-.95,1.14s8.09,6.76,20.46,17.27c18.55,15.77,46.72,40,71.62,62.34s46.57,43.11,51.77,51.35c8.71,13.65,24.29,29.5,24.28,54.33,0,17.73-7.93,40.31-32.6,70.17-10.8,13.07-35.11,37.22-56.67,58-10.78,10.41-20.88,20-28.28,27S399,488.6,399,488.62l2,2.17s75.36-70.07,97.33-96.65c24.92-30.15,33.27-53.39,33.28-72.05,0-26.15-16.41-42.72-24.75-55.92-3.86-6.05-14.68-17.06-28.92-30.5-42.65-40.22-115.52-101.14-115.52-101.14l-5.36-4.48,3.07,6.26a21.15,21.15,0,0,1,2,9.39c0,11-6.65,25.46-16.87,40.65-15.31,22.81-38.38,47.44-57.61,66.32-9.61,9.44-18.27,17.44-24.52,23.09s-10.07,8.92-10.07,8.92l1.92,2.26Z"/></svg>